# xmcd
#
# Track frame offsets: 
#        183
#        3925
#        29383
#        42603
#        61935
#        74598
#        85893
#        101220
#        114693
#        130005
#        140975
#        150725
#
# Disc length: 2323 seconds
#
# Revision: 1
# Processed by: cddbd v1.5.2PL0 Copyright (c) Steve Scherf et al.
# Submitted via: ExactAudioCopy v0.99pb5
#
DISCID=ad09110c
DTITLE=Rocky Hill - Texas Shuffle
DYEAR=1989
DGENRE=blues
TTITLE0=Rock 'N' Roll
TTITLE1=Hootchie Cootchie Man
TTITLE2=Future Blues
TTITLE3=Fool For You
TTITLE4=Bad Girl Blues
TTITLE5=Blood Stream
TTITLE6=My Guitar
TTITLE7=Gimme The Gun
TTITLE8=Young Man
TTITLE9=Yes Indeed
TTITLE10=Preaching Blues
TTITLE11=Red Rooster Jam
EXTD=ARD Tomato 1989 Feat. Johnny Winter and Dr. John
EXTT0=
EXTT1=
EXTT2=
EXTT3=
EXTT4=
EXTT5=
EXTT6=
EXTT7=
EXTT8=
EXTT9=
EXTT10=
EXTT11=
PLAYORDER=
